<svg xmlns="http://www.w3.org/2000/svg" width="113" height="32" fill="none" viewBox="0 0 113 32">
    <path fill="#0C9" fill-rule="evenodd" d="M51.526 15.368h6.627v10.11h3.554V12.245H51.501v-1.44c0-.673.193-1.13.577-1.418.384-.264.816-.408 1.296-.408.457 0 .817.048 1.13.144l.287-3.002c-.384-.168-1.272-.264-2.065-.264-1.465 0-2.641.457-3.506 1.345-.864.889-1.297 2.09-1.297 3.578v1.513h-2.209v3.074h2.21v10.157h3.602V15.368zm6.219-7.42c0 .6.216 1.104.648 1.536.432.433.937.649 1.561.625.6 0 1.129-.192 1.561-.625.432-.408.648-.936.648-1.537 0-.624-.216-1.152-.648-1.584-.432-.433-.96-.649-1.56-.649-.601 0-1.13.216-1.562.649-.432.456-.648.984-.648 1.584zM69.03 25.524v-7.612c0-.768.216-1.44.648-1.969.457-.504 1.057-.768 1.801-.768.84 0 1.441.24 1.85.72.408.504.6 1.129.6 1.921v7.684h3.578V17.17c0-1.537-.408-2.786-1.225-3.77-.816-.985-1.993-1.465-3.554-1.465-.768 0-1.513.168-2.21.504-.696.36-1.224.84-1.608 1.489v-1.633h-3.458v13.231h3.578zm15.609-7.612v7.612h-3.578V12.294h3.458v1.633c.384-.649.912-1.129 1.609-1.489.696-.336 1.44-.504 2.209-.504 1.56 0 2.737.48 3.554 1.465.816.984 1.225 2.233 1.225 3.77V25.5h-3.579v-7.684c0-.792-.192-1.417-.6-1.921s-1.008-.72-1.849-.72c-.744 0-1.345.264-1.8.768-.433.528-.65 1.2-.65 1.97zm23.893 1.945c0 3.314-2.689 6.027-6.027 6.027s-6.028-2.713-6.028-6.05v-7.541h3.578v7.564c0 1.345 1.105 2.45 2.45 2.45 1.344 0 2.449-1.105 2.449-2.45v-7.564h3.578v7.564z" clip-rule="evenodd"/>
    <path fill="#0C9" d="M5.644 32c-1.576 0-3.105-.659-4.163-1.835-1.059-1.153-1.6-2.73-1.459-4.306L2.045 1.576C2.139.682 2.868 0 3.785 0H25.78c2 0 3.882.918 5.01 2.447 1.106 1.482 1.483 3.365 1.012 5.177-.705 2.658-3.175 4.54-6.021 4.54H12.16c-.941 0-1.74-.705-1.811-1.623-.024-.518.164-1.012.54-1.365.33-.305.777-.47 1.27-.47h13.668c1.246 0 2.305-.8 2.61-1.953.212-.824.024-1.67-.517-2.33-.494-.611-1.27-.94-2.093-.94H5.362L3.48 25.011c-.07.776.165 1.53.659 2.117.494.589 1.2.965 1.975 1.036h.26c1.364 0 2.563-.965 2.846-2.283l1.646-7.67c.094-.424.47-.753.918-.753l9.644-.024c.753 0 1.435.47 1.646 1.153.165.565.095 1.13-.235 1.6-.33.447-.847.706-1.388.706h-7.574l-1.553 6.73c-.282 1.247-.988 2.353-1.999 3.152-.988.8-2.258 1.224-3.528 1.224H5.644z"/>
</svg>
