<svg height="512pt" viewBox="-81 0 512 512.00003" width="512pt" xmlns="http://www.w3.org/2000/svg"><path d="m25.601562 247.464844h17.066407v34.136718h-8.535157c-14.136718 0-25.597656 11.460938-25.597656 25.597657v17.066406c0 14.140625 11.460938 25.601563 25.597656 25.601563h8.535157v25.597656c.027343 23.554687 19.113281 42.640625 42.664062 42.667968h2.5625l23.890625 65.785157c6.167969 16.839843 22.175782 28.046875 40.109375 28.082031h88.746094c17.933594-.035156 33.941406-11.242188 40.105469-28.082031l23.894531-65.785157h2.558594c23.554687-.027343 42.640625-19.113281 42.667969-42.667968v-238.929688c-.027344-23.554687-19.113282-42.640625-42.667969-42.667968h-2.558594l-23.894531-65.785157c-6.164063-16.839843-22.171875-28.0468748-40.105469-28.082031h-88.746094c-17.933593.0351562-33.941406 11.242188-40.109375 28.082031l-23.890625 65.785157h-2.5625c-23.550781.027343-42.636719 19.113281-42.664062 42.667968v25.597656h-17.066407c-14.140624 0-25.601562 11.460938-25.601562 25.601563v34.132813c0 14.136718 11.460938 25.597656 25.601562 25.597656zm8.53125 85.335937c-4.710937 0-8.53125-3.820312-8.53125-8.535156v-17.066406c0-4.710938 3.820313-8.53125 8.53125-8.53125h8.535157v34.132812zm230.554688 145.277344c-3.695312 10.101563-13.292969 16.828125-24.046875 16.855469h-88.746094c-10.761719-.019532-20.367187-6.75-24.066406-16.855469l-21.777344-59.945313h180.429688zm-136.839844-444.15625c3.695313-10.101563 13.292969-16.828125 24.046875-16.855469h88.746094c10.757813.019532 20.367187 6.75 24.0625 16.855469l21.777344 59.945313h-180.429688zm-68.113281 102.613281c0-14.140625 11.460937-25.601562 25.597656-25.601562h221.867188c14.140625 0 25.601562 11.460937 25.601562 25.601562v238.929688c0 14.140625-11.460937 25.601562-25.601562 25.601562h-221.867188c-14.136719 0-25.597656-11.460937-25.597656-25.601562zm-42.667969 51.199219c0-4.714844 3.820313-8.535156 8.535156-8.535156h17.066407v51.199219h-17.066407c-4.714843 0-8.535156-3.820313-8.535156-8.53125zm0 0"/><path d="m196.265625 298.667969c-9.425781 0-17.066406-7.640625-17.066406-17.066407 0-4.714843-3.820313-8.535156-8.53125-8.535156-4.714844 0-8.535157 3.820313-8.535157 8.535156 0 18.851563 15.28125 34.132813 34.132813 34.132813s34.132813-15.28125 34.132813-34.132813c0-18.851562-15.28125-34.136718-34.132813-34.136718-4.710937 0-8.53125 3.824218-8.53125 8.535156s3.820313 8.535156 8.53125 8.535156c9.425781 0 17.066406 7.640625 17.066406 17.066406 0 9.425782-7.640625 17.066407-17.066406 17.066407zm0 0"/><path d="m145.066406 281.601562c0-4.714843-3.820312-8.535156-8.53125-8.535156-4.714844 0-8.535156 3.820313-8.535156 8.535156 0 37.699219 30.5625 68.265626 68.265625 68.265626s68.269531-30.566407 68.269531-68.265626c0-37.703124-30.566406-68.269531-68.269531-68.269531-4.710937 0-8.53125 3.820313-8.53125 8.535157 0 4.710937 3.820313 8.53125 8.53125 8.53125 28.277344 0 51.199219 22.925781 51.199219 51.203124 0 28.277344-22.921875 51.199219-51.199219 51.199219s-51.199219-22.921875-51.199219-51.199219zm0 0"/><path d="m196.265625 196.265625c47.128906 0 85.335937 38.207031 85.335937 85.335937 0 47.125-38.207031 85.332032-85.335937 85.332032s-85.332031-38.207032-85.332031-85.332032c0-4.714843-3.820313-8.535156-8.535156-8.535156-4.710938 0-8.53125 3.820313-8.53125 8.535156 0 56.550782 45.84375 102.398438 102.398437 102.398438s102.402344-45.847656 102.402344-102.398438c0-56.554687-45.847657-102.402343-102.402344-102.402343-4.710937 0-8.53125 3.820312-8.53125 8.535156 0 4.710937 3.820313 8.53125 8.53125 8.53125zm0 0"/><path d="m93.867188 153.601562h85.332031c4.714843 0 8.535156-3.820312 8.535156-8.535156 0-4.710937-3.820313-8.53125-8.535156-8.53125h-85.332031c-4.714844 0-8.535157 3.820313-8.535157 8.53125 0 4.714844 3.820313 8.535156 8.535157 8.535156zm0 0"/><path d="m213.332031 153.601562h34.132813c4.714844 0 8.535156-3.820312 8.535156-8.535156 0-4.710937-3.820312-8.53125-8.535156-8.53125h-34.132813c-4.710937 0-8.53125 3.820313-8.53125 8.53125 0 4.714844 3.820313 8.535156 8.53125 8.535156zm0 0"/><path d="m281.601562 153.601562h17.066407c4.710937 0 8.53125-3.820312 8.53125-8.535156 0-4.710937-3.820313-8.53125-8.53125-8.53125h-17.066407c-4.714843 0-8.535156 3.820313-8.535156 8.53125 0 4.714844 3.820313 8.535156 8.535156 8.535156zm0 0"/></svg>